<?xml version="1.0" standalone="no"?>
<!DOCTYPE svg PUBLIC "-//W3C//DTD SVG 20010904//EN"
 "http://www.w3.org/TR/2001/REC-SVG-20010904/DTD/svg10.dtd">
<svg version="1.0" xmlns="http://www.w3.org/2000/svg"
 width="700.000000pt" height="700.000000pt" viewBox="0 0 700.000000 700.000000"
 preserveAspectRatio="xMidYMid meet">
<metadata>
Created by potrace 1.14, written by Peter Selinger 2001-2017
</metadata>
<g transform="translate(0.000000,700.000000) scale(0.100000,-0.100000)"
fill="#000000" stroke="none">
<path d="M1064 6404 c-135 -28 -218 -74 -315 -173 -42 -45 -78 -94 -102 -142
-36 -75 -43 -97 -56 -181 -9 -59 -6 -4814 2 -4846 4 -12 9 -30 11 -40 44 -192
231 -373 436 -423 45 -11 489 -14 2470 -14 l2415 0 68 23 c105 35 175 79 252
157 90 91 145 197 163 315 9 61 9 4822 -1 4856 -39 146 -77 215 -166 305 -73
72 -143 116 -241 150 l-65 22 -2406 2 c-1879 1 -2419 -1 -2465 -11z m846 -811
l0 -253 -253 0 -253 0 1 253 c1 138 3 252 4 252 0 1 114 1 251 1 l250 1 0
-254z m921 191 c0 -35 0 -89 0 -119 0 -30 0 -116 0 -190 l-1 -135 -252 2 -252
3 -1 245 c-1 135 0 247 1 250 1 3 115 6 253 6 l251 1 1 -63z m920 42 c4 -83 3
-470 -2 -477 -3 -5 -110 -8 -253 -7 l-248 3 0 240 c1 132 1 245 1 251 1 7 82
10 251 11 248 0 250 0 251 -21z m924 -233 l0 -253 -252 0 -253 0 0 248 c0 137
2 251 5 254 3 2 116 4 253 4 l247 -1 0 -252z m916 248 c1 -3 2 -117 3 -253 l2
-248 -253 0 -253 0 0 253 0 253 250 0 c138 1 251 -2 251 -5z m-2593 -1166
c103 -59 203 -117 222 -128 19 -10 73 -42 120 -70 47 -27 110 -64 140 -80 30
-17 79 -45 108 -64 29 -18 55 -33 59 -33 3 0 29 -14 57 -32 28 -17 70 -42 93
-54 23 -13 183 -106 355 -205 172 -100 329 -191 348 -201 344 -195 365 -213
365 -308 0 -94 -15 -108 -279 -261 -232 -133 -425 -245 -914 -527 -144 -84
-266 -152 -271 -152 -5 0 -11 -4 -13 -8 -3 -6 -111 -70 -288 -170 -25 -14 -76
-44 -115 -67 -147 -89 -192 -108 -241 -102 -55 6 -107 40 -130 87 -17 33 -18
100 -20 1195 0 779 3 1168 9 1185 27 64 101 110 169 106 28 -2 91 -34 226
-111z m-1088 -3271 l0 -254 -253 0 -253 0 1 253 c1 138 3 253 3 253 1 1 115 2
252 2 l250 0 0 -254z m920 237 c1 -22 1 -418 1 -458 l-1 -33 -249 0 c-190 0
-250 3 -253 13 -3 10 -3 469 1 488 0 4 114 7 251 7 225 0 250 -2 250 -17z
m921 -39 c1 -54 0 -382 -1 -429 l0 -23 -249 0 c-190 0 -250 3 -253 13 -3 10
-2 447 1 483 1 8 74 12 251 12 l250 0 1 -56z m924 -187 c0 -132 -1 -246 -3
-252 -3 -10 -63 -13 -253 -13 l-249 0 -1 65 c0 36 0 121 0 190 0 69 0 154 0
189 l1 64 252 -1 252 -2 1 -240z m921 -12 l0 -253 -253 0 -253 0 0 254 0 254
253 -1 252 -2 1 -252z"/>
</g>
</svg>
